<svg width="512" height="512" viewBox="0 0 512 512" fill="none" xmlns="http://www.w3.org/2000/svg">
  <rect width="512" height="512" rx="128" fill="#3B82F6"/>
  <path d="M256 128C238.327 128 224 142.327 224 160V352C224 369.673 238.327 384 256 384H352C369.673 384 384 369.673 384 352V160C384 142.327 369.673 128 352 128H256ZM192 160C192 124.654 220.654 96 256 96H352C387.346 96 416 124.654 416 160V352C416 387.346 387.346 416 352 416H256C220.654 416 192 387.346 192 352V160Z" fill="white"/>
  <path d="M128 192C128 174.327 142.327 160 160 160C177.673 160 192 174.327 192 192V352C192 369.673 177.673 384 160 384C142.327 384 128 369.673 128 352V192Z" fill="white"/>
  <path d="M160 128C142.327 128 128 113.673 128 96C128 78.3269 142.327 64 160 64C177.673 64 192 78.3269 192 96C192 113.673 177.673 128 160 128Z" fill="white"/>
</svg>
